<?xml version="1.0" standalone="no"?>
<!DOCTYPE svg PUBLIC "-//W3C//DTD SVG 20010904//EN"
 "http://www.w3.org/TR/2001/REC-SVG-20010904/DTD/svg10.dtd">
<svg version="1.0" xmlns="http://www.w3.org/2000/svg"
 width="480.000000pt" height="480.000000pt" viewBox="0 0 480.000000 480.000000"
 preserveAspectRatio="xMidYMid meet">

<g transform="translate(0.000000,480.000000) scale(0.100000,-0.100000)"
fill="#000000" stroke="none">
<path d="M0 2400 l0 -2400 2400 0 2400 0 0 2400 0 2400 -2400 0 -2400 0 0
-2400z m2115 1535 l0 -190 -85 -5 c-94 -6 -129 -23 -172 -83 -23 -32 -23 -35
-29 -452 l-5 -420 -27 -82 c-34 -102 -91 -187 -173 -260 l-64 -57 84 -85 c88
-91 133 -164 163 -268 14 -48 17 -121 20 -433 2 -206 6 -390 9 -408 3 -18 19
-49 37 -69 45 -51 98 -73 180 -73 l67 0 -2 -192 -3 -193 -71 -3 c-227 -9 -445
119 -547 323 -59 118 -60 127 -66 565 -5 361 -8 409 -23 432 -10 15 -84 86
-165 158 -82 72 -156 147 -166 166 -39 71 -31 153 19 214 14 16 85 74 159 130
79 59 142 114 152 133 16 29 19 77 24 452 5 396 6 424 27 485 62 187 224 346
403 394 34 10 91 14 154 13 l100 -2 0 -190z m866 166 c174 -67 301 -202 362
-384 19 -57 21 -93 26 -482 6 -397 7 -422 26 -453 11 -18 86 -83 167 -144 160
-121 188 -156 188 -240 0 -76 -30 -117 -192 -259 -107 -95 -156 -145 -169
-174 -17 -36 -19 -73 -19 -405 0 -404 -6 -452 -60 -562 -106 -214 -305 -337
-547 -338 l-73 0 0 195 0 195 63 0 c88 0 157 35 195 98 l27 47 5 410 6 410 25
67 c37 95 79 156 164 236 l73 70 -40 28 c-83 58 -172 185 -209 299 -9 29 -14
160 -18 465 -7 472 -4 456 -76 518 -41 36 -56 41 -145 44 l-65 3 -3 194 -2
193 117 -4 c89 -4 132 -11 174 -27z"/>
</g>
</svg>
